<svg width="25" height="29" viewBox="0 0 25 29" fill="none" xmlns="http://www.w3.org/2000/svg">
<g clip-path="url(#clip0_84_633)">
<path fill-rule="evenodd" clip-rule="evenodd" d="M23.02 8.97001C23.47 8.79001 23.65 8.53 23.74 8.1C23.77 7.78 23.8 7.47 23.82 7.16C23.91 6.07 24 5 24.05 3.94C24.09 2.89001 24.09 1.8 23.69 0.760005C23.45 0.130005 23.14 -0.0899945 22.43 0.0400055C21.66 0.160005 20.86 0.290005 20.13 0.550006C18.95 0.950005 17.79 1.39001 16.62 1.89C13.78 3.06 11.05 4.45 8.46998 6.1C7.99998 6.4 7.90998 6.84 7.84998 7.28C7.81998 7.43 7.93998 7.62 8.05998 7.74C8.11998 7.81 8.16998 7.89 8.21998 7.97C8.34998 8.19 8.47998 8.41 8.85998 8.43C10.13 8.47 11.41 8.57 12.66 8.67C12.73 8.67 12.81 8.68 12.88 8.69C13.12 8.71 13.36 8.72 13.6 8.74C15.7 8.89 17.82 9.04 19.92 9.16C20.09 9.16 20.27 9.16001 20.45 9.13001C20.66 9.11001 20.87 9.09 21.08 9.11C21.75 9.19 22.38 9.23001 23.03 8.98001L23.02 8.97001ZM11.35 7.32C11.35 7.32 11.35 7.29 11.35 7.28C15.05 7.5 18.72 7.70001 22.44 7.90001C22.36 7.90001 22.28 7.92 22.21 7.93C21.98 7.96 21.78 7.99001 21.58 7.97001C20.83 7.93001 20.08 7.88 19.32 7.83C18.57 7.78 17.81 7.73 17.06 7.69L11.76 7.38C11.69 7.38 11.62 7.38 11.56 7.37C11.49 7.37 11.42 7.35 11.36 7.35C11.36 7.34 11.36 7.33 11.36 7.31L11.35 7.32Z" fill="#C0D72F"/>
<path d="M18.82 19.47C18.67 19.65 18.47 19.99 18.22 20.28C17.05 21.46 15.88 22.64 14.72 23.8C14.38 24.11 14 24.38 13.62 24.62C13.34 24.78 12.99 24.74 12.73 24.53C12.11 24.09 11.57 23.56 11.27 22.89C10.92 22.13 10.61 21.38 10.29 20.63C9.59005 18.77 8.89005 16.88 8.19005 14.98C7.94005 14.32 7.68005 13.68 7.48005 13.01C7.40005 12.73 7.39005 12.38 7.42005 12.07C7.46005 11.73 7.73005 11.73 7.99005 11.83C8.52005 12.07 9.05005 12.3 9.55005 12.58C11.08 13.46 12.57 14.37 14.08 15.25C15.32 15.94 16.59 16.59 17.83 17.28C18.55 17.66 19 18.6 18.83 19.47L18.82 19.47Z" fill="#C0D72F"/>
<path d="M0.950181 27.8901L0.610182 27.8201C0.190182 27.7101 -0.0398182 27.3501 0.010182 26.9601C0.310182 24.6301 0.610182 22.2701 0.910182 19.9301C1.13018 18.3001 1.37018 16.6401 1.61018 15.0201C1.64018 14.8601 1.76018 14.7001 1.84018 14.5601C2.03018 14.6801 2.23018 14.8001 2.40018 14.9601C2.47018 15.0301 2.44018 15.1801 2.47018 15.2701C2.59018 15.6401 2.65018 16.0201 2.81018 16.3401C3.92018 18.4701 5.11018 20.5601 6.16018 22.7101C6.68018 23.7201 6.97018 24.8301 7.34018 25.8901C7.49018 26.2601 7.31018 26.5801 6.92018 26.7401C5.25018 27.4001 3.56018 27.9001 1.74018 28.0301C1.46018 28.0501 1.19018 28.0001 0.890181 28.0001C0.930181 27.9301 0.930182 27.9001 0.930182 27.9001L0.950181 27.8901Z" fill="#C0D72F"/>
</g>
<defs>
<clipPath id="clip0_84_633">
<rect width="24.07" height="28.03" fill="white" transform="translate(24.0701 28.03) rotate(-180)"/>
</clipPath>
</defs>
</svg>
