<svg width="116" height="175" viewBox="0 0 116 175" fill="none" xmlns="http://www.w3.org/2000/svg">
<g clip-path="url(#clip0_84_637)">
<mask id="mask0_84_637" style="mask-type:luminance" maskUnits="userSpaceOnUse" x="-28" y="30" width="112" height="115">
<path d="M55.9932 30.3944L-27.9797 55.6939L-0.763298 144.476L83.2096 119.177L55.9932 30.3944Z" fill="white"/>
</mask>
<g mask="url(#mask0_84_637)">
<path fill-rule="evenodd" clip-rule="evenodd" d="M73.7908 107.625C74.0637 103.305 73.3599 99.1758 72.1033 95.0792C71.9405 94.5441 71.7719 94.0056 71.5424 93.594C69.9047 89.0254 67.3025 84.9897 64.6142 80.98C61.7685 76.9064 59.3308 72.6892 57.4644 68.0839C54.5886 60.9584 50.1459 55.0002 43.7797 50.579C37.224 46.1603 29.9296 44.9766 22.6168 43.7973C20.7912 43.4982 18.9633 43.19 17.1584 42.8566C15.8196 43.179 14.4877 43.451 13.1247 43.6964C10.0461 44.2785 6.98695 44.8801 4.31338 46.2448C-5.51772 51.3126 -13.6876 58.4832 -18.4482 68.9758C-19.4792 71.1764 -20.3518 73.5429 -20.6533 75.8721C-21.2746 80.5349 -20.7251 85.2965 -19.0241 89.7083C-18.2018 92.0454 -17.0623 94.2854 -15.9228 96.5254L-15.761 96.8805C-14.6147 99.226 -13.4179 101.657 -11.9831 103.81C-7.76815 110.184 -1.60375 113.836 5.16332 116.62C6.12253 116.965 7.06328 117.432 8.02473 117.864C9.51571 118.562 11.017 119.281 12.599 119.659C19.8975 121.563 27.1421 123.271 34.504 124.94C35.6035 125.221 36.7352 125.359 37.9048 125.511C38.9583 125.648 40.0429 125.773 41.0976 126.012C45.4817 126.928 49.8614 127.475 54.3715 127.313C64.8177 126.859 73.2654 118.32 73.8368 107.575L73.7977 107.613L73.7908 107.625ZM-14.1461 70.5207C-8.51364 62.1143 -1.50593 55.6614 8.40075 52.6748C22.263 48.8479 34.9075 51.3983 45.7762 61.6267C48.5184 64.2105 50.5614 67.5889 52.001 71.1488C54.5624 77.6789 57.8997 83.7027 61.8911 89.3182C66.3877 95.4727 68.8512 102.373 68.5483 110.246C68.4067 115.698 64.6737 118.817 60.2068 119.816C55.5214 120.879 50.9718 120.12 46.2647 119.298C34.4529 117.211 22.7955 114.493 11.2616 111.037C2.19757 108.255 -5.40533 102.767 -10.1507 93.9746C-12.2382 90.1249 -14.2876 86.0563 -15.3729 81.8058C-16.2735 78.08 -16.565 74.1761 -14.1645 70.5252L-14.1427 70.515L-14.1461 70.5207ZM-1.30925 106.496C0.217606 108.51 3.64734 110.409 5.21126 110.285C3.46649 109.372 1.8275 108.375 0.195374 107.405C-0.322639 107.107 -0.823398 106.782 -1.30925 106.496ZM45.7964 53.8712L45.5778 54.2851C43.0429 52.7077 40.4955 51.0992 37.9319 49.4265C38.0273 49.3983 38.1251 49.2624 38.1849 49.1114L45.8021 53.8747L45.7964 53.8712Z" fill="#CADB2B"/>
</g>
</g>
<defs>
<clipPath id="clip0_84_637">
<rect width="128" height="127" fill="white" transform="translate(5.64746) rotate(31.1252)"/>
</clipPath>
</defs>
</svg>
